<svg id="Layer_1" data-name="Layer 1" xmlns="http://www.w3.org/2000/svg" viewBox="0 0 2235.88 850.64"><defs><style>.cls-1{font-size:608.91px;fill:#d52027;font-family:Pacifico-Regular, Pacifico;}.cls-2{fill:#199467;}</style></defs><title>Phischel</title><text class="cls-1" transform="translate(0 572.37)">Phischel</text><path class="cls-2" d="M674.35,1621.62h31.84c20.46,0,35.5,6.27,35.5,24.54,0,9.38-5.11,18.51-13.82,21.55v.61c11,2.5,19.12,10.17,19.12,23.63,0,19.91-16.32,29.22-38.24,29.22h-34.4Zm30.26,41.1c13.88,0,19.79-5.42,19.79-14.06,0-9.62-6.51-13.28-19.42-13.28H692v27.34Zm2.32,44.69c14.61,0,22.77-5.23,22.77-16.44,0-10.47-7.92-15-22.77-15H692v31.48Z" transform="translate(-299.38 -992)"/><path class="cls-2" d="M771.83,1693.29V1646.4h17.54V1691c0,12.29,3.53,16.92,11.63,16.92,6.58,0,10.9-3,16.56-10.35V1646.4H835.1v74.77H820.73l-1.34-11h-.49c-6.57,7.8-13.82,12.85-24,12.85C778.84,1723,771.83,1712.16,771.83,1693.29Z" transform="translate(-299.38 -992)"/><path class="cls-2" d="M858.88,1712.59l8.16-11.14c6.63,5.17,13.06,8.34,20.64,8.34,8.16,0,12-3.84,12-9,0-6.27-8.1-9.07-16.07-12.12-9.8-3.68-21-9.31-21-21.8,0-13,10.47-22.34,27.22-22.34a40.28,40.28,0,0,1,24.84,9l-8,10.77c-5.23-3.83-10.5-6.51-16.37-6.51-7.52,0-11.09,3.59-11.09,8.28,0,5.91,7.55,8.16,15.65,11.14,10.11,3.78,21.43,8.65,21.43,22.59,0,12.85-10.16,23.2-29,23.2C877,1723,866.18,1718.62,858.88,1712.59Z" transform="translate(-299.38 -992)"/><path class="cls-2" d="M936,1683.85c0-24.9,17.59-39.27,37.5-39.27a32,32,0,0,1,21.86,8.4l-8.52,11.39c-4-3.47-7.74-5.48-12.42-5.48-12.06,0-20.4,10-20.4,25s8.22,24.84,19.85,24.84c5.84,0,11.2-2.86,15.46-6.45l7.13,11.57A36.91,36.91,0,0,1,972,1723C951.61,1723,936,1708.63,936,1683.85Z" transform="translate(-299.38 -992)"/><path class="cls-2" d="M1014.67,1701.08c0-16,13.27-24.35,44-27.64-.25-8-3.47-14.74-13.58-14.74-7.43,0-14.43,3.35-21,7.37l-6.45-11.69c8.22-5.18,18.81-9.8,30.69-9.8,18.69,0,27.88,11.5,27.88,32.33v44.26h-14.37l-1.34-8.28H1060c-6.7,5.73-14.37,10.11-23.2,10.11C1023.68,1723,1014.67,1714.11,1014.67,1701.08Zm44,.06v-16.8c-20.28,2.55-27,7.85-27,15.4,0,6.61,4.51,9.5,10.78,9.5C1048.46,1709.24,1053.09,1706.26,1058.63,1701.14Z" transform="translate(-299.38 -992)"/><path class="cls-2" d="M1106.21,1646.4h14.37l1.34,10.11h.49c6.7-6.51,14.31-11.93,24.54-11.93,16,0,23,10.84,23,29.71v46.88h-17.54v-44.63c0-12.3-3.53-16.92-11.63-16.92-6.58,0-10.9,3.22-17,9.31v52.24h-17.54Z" transform="translate(-299.38 -992)"/><path class="cls-2" d="M1195.88,1683.85c0-24.36,15.28-39.27,31.66-39.27,8.46,0,13.82,3.16,19.6,8.22l-.67-12.06v-27.09H1264v107.52h-14.37l-1.34-8.09h-.49c-5.54,5.54-13.21,9.92-21.25,9.92C1207.93,1723,1195.88,1708.51,1195.88,1683.85Zm50.59,16.26v-34.83c-5.11-4.57-10.16-6.21-15.22-6.21-9.5,0-17.35,9-17.35,24.6,0,16.25,6.21,24.84,17,24.84C1236.67,1708.51,1241.54,1706,1246.47,1700.11Z" transform="translate(-299.38 -992)"/><path class="cls-2" d="M1290.35,1683.85c0-24.9,16.92-39.27,35.56-39.27s35.56,14.37,35.56,39.27-16.93,39.15-35.56,39.15S1290.35,1708.63,1290.35,1683.85Zm53.09,0c0-15-6.57-25-17.53-25s-17.54,10-17.54,25,6.58,24.84,17.54,24.84S1343.44,1698.83,1343.44,1683.85Z" transform="translate(-299.38 -992)"/><path class="cls-2" d="M1429,1696v-35.62h-10.65V1647.2l11.57-.8L1432,1626h14.55v20.39h19.06v13.95H1446.5v35.59c0,8.79,3.41,13.12,10.6,13.12a23.28,23.28,0,0,0,7.79-1.71l3,12.91a48.46,48.46,0,0,1-15.28,2.74C1435.36,1723,1429,1712.1,1429,1696Z" transform="translate(-299.38 -992)"/><path class="cls-2" d="M1489.43,1693.29V1646.4H1507V1691c0,12.29,3.54,16.92,11.63,16.92,6.58,0,10.9-3,16.57-10.35V1646.4h17.53v74.77h-14.37l-1.34-11h-.48c-6.58,7.8-13.83,12.85-24.06,12.85C1496.43,1723,1489.43,1712.16,1489.43,1693.29Z" transform="translate(-299.38 -992)"/><path class="cls-2" d="M1639.16,1713.32h-.49l-1.52,7.85h-13.82V1613.65h17.53v27.82l-.48,12.42c6.24-5.48,13.91-9.31,21.58-9.31,18.69,0,29.5,15,29.5,38,0,25.67-15.28,40.46-31.9,40.46C1652.74,1723,1645.43,1719.53,1639.16,1713.32Zm34.28-30.51c0-14.91-4.87-23.74-16.26-23.74-5.42,0-10.65,2.74-16.32,8.4v34.83c5.24,4.57,10.66,6.21,15,6.21C1665.83,1708.51,1673.44,1699.74,1673.44,1682.81Z" transform="translate(-299.38 -992)"/><path class="cls-2" d="M1716,1623.39c0-5.91,4.63-9.93,10.84-9.93s10.84,4,10.84,9.93-4.63,9.92-10.84,9.92S1716,1629.17,1716,1623.39Zm2,23h17.54v74.77H1718Z" transform="translate(-299.38 -992)"/><path class="cls-2" d="M1761.94,1683.85c0-24.29,16.87-39.27,34.47-39.27,20.21,0,30.87,14.61,30.87,35.5a46,46,0,0,1-.76,8.52h-47.47c1.46,13.27,10,20.82,22,20.82,6.4,0,11.88-2,17.36-5.42l6,10.9a46.44,46.44,0,0,1-25.64,8.1C1778.14,1723,1761.94,1708.51,1761.94,1683.85Zm50.18-7.18c0-11.51-5.12-18.51-15.35-18.51-8.71,0-16.38,6.51-17.9,18.51Z" transform="translate(-299.38 -992)"/><path class="cls-2" d="M1853,1646.4h14.37l1.34,10.11h.49c6.7-6.51,14.31-11.93,24.54-11.93,16,0,23,10.84,23,29.71v46.88h-17.54v-44.63c0-12.3-3.53-16.92-11.63-16.92-6.58,0-10.9,3.22-17,9.31v52.24H1853Z" transform="translate(-299.38 -992)"/><path class="cls-2" d="M1942.33,1683.85c0-24.29,16.87-39.27,34.46-39.27,20.22,0,30.87,14.61,30.87,35.5a45.14,45.14,0,0,1-.76,8.52h-47.46c1.46,13.27,10,20.82,22,20.82,6.4,0,11.87-2,17.35-5.42l6,10.9a46.38,46.38,0,0,1-25.63,8.1C1958.53,1723,1942.33,1708.51,1942.33,1683.85Zm50.17-7.18c0-11.51-5.11-18.51-15.34-18.51-8.71,0-16.38,6.51-17.9,18.51Z" transform="translate(-299.38 -992)"/><path class="cls-2" d="M2026,1712.59l8.16-11.14c6.64,5.17,13.06,8.34,20.64,8.34,8.16,0,12-3.84,12-9,0-6.27-8.1-9.07-16.08-12.12-9.8-3.68-21-9.31-21-21.8,0-13,10.47-22.34,27.21-22.34a40.28,40.28,0,0,1,24.85,9l-8,10.77c-5.24-3.83-10.5-6.51-16.38-6.51-7.52,0-11.08,3.59-11.08,8.28,0,5.91,7.55,8.16,15.65,11.14,10.1,3.78,21.43,8.65,21.43,22.59,0,12.85-10.17,23.2-29,23.2C2044.08,1723,2033.3,1718.62,2026,1712.59Z" transform="translate(-299.38 -992)"/><path class="cls-2" d="M2107.59,1696v-35.62h-10.66V1647.2l11.57-.8,2.07-20.39h14.55v20.39h19.06v13.95h-19.06v35.59c0,8.79,3.41,13.12,10.6,13.12a23.23,23.23,0,0,0,7.79-1.71l3,12.91a48.53,48.53,0,0,1-15.29,2.74C2114,1723,2107.59,1712.1,2107.59,1696Z" transform="translate(-299.38 -992)"/><path class="cls-2" d="M2161.69,1701.08c0-16,13.27-24.35,44-27.64-.24-8-3.47-14.74-13.58-14.74-7.43,0-14.43,3.35-21,7.37l-6.46-11.69c8.22-5.18,18.82-9.8,30.69-9.8,18.69,0,27.89,11.5,27.89,32.33v44.26h-14.37l-1.34-8.28H2207c-6.7,5.73-14.37,10.11-23.2,10.11C2170.7,1723,2161.69,1714.11,2161.69,1701.08Zm44,.06v-16.8c-20.27,2.55-27,7.85-27,15.4,0,6.61,4.5,9.5,10.77,9.5C2195.48,1709.24,2200.11,1706.26,2205.65,1701.14Z" transform="translate(-299.38 -992)"/><path class="cls-2" d="M2253.24,1646.4h14.37l1.34,13.34h.48c5.33-9.74,13.25-15.16,21.25-15.16a19,19,0,0,1,8.47,1.52l-3.05,15.22a25.32,25.32,0,0,0-7.67-1.22c-6,0-13.15,4.08-17.66,15.47v45.6h-17.53Z" transform="translate(-299.38 -992)"/></svg>